<svg width="63" height="40" viewBox="0 0 63 40" fill="none" xmlns="http://www.w3.org/2000/svg">
<g clip-path="url(#clip0_534_1341)">
<path d="M10.666 0L15.6814 7.36853C13.6863 7.98839 11.9577 8.98957 10.666 10.2471C9.11447 11.7595 8.19165 13.6434 8.19165 15.6846C8.19165 17.726 9.11286 19.61 10.666 21.1222C11.9544 22.3782 13.6766 23.3761 15.6668 23.9959L10.666 31.3434L0 15.6733L10.6677 0.00162425L10.666 0Z" fill="#ED4137"/>
<path d="M16.5623 8.59538L11.5469 15.9639C13.542 16.5837 15.2706 17.585 16.5623 18.8425C18.1139 20.3548 19.0367 22.2387 19.0367 24.28C19.0367 26.3214 18.1154 28.2053 16.5623 29.7176C15.2739 30.9736 13.5517 31.9715 11.5615 32.5913L16.5623 39.9388L27.2299 24.2654L16.5623 8.59375V8.59538Z" fill="#ED4137"/>
<path d="M34.1482 6.60697H32.8321C32.7623 5.92903 32.3536 5.60004 31.5162 5.60004C30.7385 5.60004 30.3298 5.87919 30.3298 6.37768C30.3298 6.7964 30.6189 7.03567 31.3566 7.21512C32.1044 7.39458 32.8321 7.57403 33.3207 7.79336C33.8989 8.05257 34.3574 8.46133 34.3574 9.39848C34.3574 10.854 33.2609 11.5021 31.7155 11.5021C30.0805 11.5021 28.944 10.7743 28.9141 9.28881H30.2501C30.27 9.96674 30.8381 10.3855 31.7254 10.3855C32.543 10.3855 33.0116 10.0365 33.0116 9.44832C33.0116 9.0595 32.8122 8.79032 31.9847 8.61087C31.1673 8.43142 30.6388 8.31178 30.1702 8.10242C29.4624 7.78339 29.0635 7.30485 29.0635 6.4674C29.0635 5.281 29.8711 4.43359 31.4863 4.43359C33.1611 4.43359 34.0983 5.34082 34.1482 6.60697Z" fill="white"/>
<path d="M36.085 7.74294H37.4011C38.1986 7.74294 38.5276 7.33418 38.5276 6.75594C38.5276 6.20761 38.1986 5.79886 37.4011 5.79886H36.085V7.74294ZM36.085 11.2722H34.6992V4.65234H37.6203C38.9165 4.65234 39.7438 5.59946 39.7438 6.79582C39.7438 8.00215 38.9165 8.86951 37.6203 8.86951H36.085V11.2722Z" fill="white"/>
<path d="M45.0481 11.2722H40.0234V4.65234H44.8887V5.80882H41.3694V7.22451H44.6095V8.39097H41.3694V10.0958H45.0481V11.2722Z" fill="white"/>
<path d="M49.1106 8.76982L48.2831 6.13782H48.2732L47.4257 8.76982H49.1106ZM51.4336 11.2722H49.9282L49.5094 9.90635H47.0668L46.5984 11.2722H45.1328L47.4956 4.65234H49.1007L51.4336 11.2722Z" fill="white"/>
<path d="M57.4907 11.2722H55.8059L53.8419 8.29126L53.1042 9.01905V11.2722H51.7383V4.65234H53.1042V7.34415L55.6364 4.65234H57.4309L54.8188 7.2644L57.4907 11.2722Z" fill="white"/>
<path d="M33.3789 17.4612H30.4677V20.2526H29.082V13.6328H33.7977V14.7893H30.4677V16.2947H33.3789V17.4612Z" fill="white"/>
<path d="M37.2438 14.7794H35.4592V16.544H37.194C37.9317 16.544 38.2108 16.175 38.2108 15.6667C38.2108 15.1482 37.9317 14.7794 37.2438 14.7794ZM39.3275 20.2526H37.9715V18.5478C37.9715 17.9098 37.7324 17.6605 36.9348 17.6605H35.4592V20.2526H34.1133V13.6328H37.4731C38.6994 13.6328 39.507 14.4504 39.507 15.5469C39.507 16.2549 39.1579 16.8531 38.5199 17.0822C39.1081 17.2717 39.3275 17.6007 39.3275 18.3784V20.2526Z" fill="white"/>
<path d="M44.9036 20.2526H39.8789V13.6328H44.744V14.7893H41.2247V16.2051H44.4649V17.3714H41.2247V19.0762H44.9036V20.2526Z" fill="white"/>
<path d="M50.5771 20.2526H49.3011L46.4696 15.8062V20.2526H45.1836V13.6328H46.6491L49.2811 17.8898V13.6328H50.5771V20.2526Z" fill="white"/>
<path d="M55.5223 17.9802H56.9081C56.6289 19.4856 55.592 20.4825 54.0567 20.4825C52.322 20.4825 50.9961 19.2962 50.9961 17.023C50.9961 14.7799 52.1825 13.4141 54.0767 13.4141C55.7317 13.4141 56.7784 14.4709 56.9081 15.8067H55.5223C55.3328 15.0591 54.7446 14.6104 54.0866 14.6104C52.9401 14.6104 52.4017 15.4977 52.4017 16.9433C52.4017 18.4089 52.9401 19.2762 54.0169 19.2762C54.8344 19.2762 55.3328 18.8076 55.5223 17.9802Z" fill="white"/>
<path d="M62.5551 20.2526H61.1593V17.2817H58.5771V20.2526H57.1914V13.6328H58.5771V16.1252H61.1593V13.6328H62.5551V20.2526Z" fill="white"/>
<path d="M33.3789 26.4455H30.4677V29.237H29.082V22.6172H33.7977V23.7737H30.4677V25.2791H33.3789V26.4455Z" fill="white"/>
<path d="M36.763 26.7347L35.9355 24.1027H35.9255L35.0782 26.7347H36.763ZM39.0859 29.237H37.5805L37.1619 27.8712H34.7192L34.2507 29.237H32.7852L35.148 22.6172H36.753L39.0859 29.237Z" fill="white"/>
<path d="M44.1443 24.5718H42.8282C42.7584 23.8939 42.3496 23.5649 41.5123 23.5649C40.7346 23.5649 40.3259 23.8441 40.3259 24.3426C40.3259 24.7612 40.615 25.0005 41.3527 25.1799C42.1005 25.3594 42.8282 25.5389 43.3168 25.7582C43.895 26.0174 44.3535 26.4262 44.3535 27.3633C44.3535 28.8189 43.257 29.4669 41.7116 29.4669C40.0766 29.4669 38.9401 28.7392 38.9102 27.2537H40.246C40.2659 27.9316 40.8342 28.3503 41.7215 28.3503C42.5391 28.3503 43.0077 28.0014 43.0077 27.4132C43.0077 27.0244 42.8083 26.7552 41.9808 26.5757C41.1632 26.3963 40.6349 26.2766 40.1663 26.0672C39.4585 25.7482 39.0596 25.2697 39.0596 24.4323C39.0596 23.2459 39.8672 22.3984 41.4824 22.3984C43.1572 22.3984 44.0943 23.3057 44.1443 24.5718Z" fill="white"/>
<path d="M47.5789 29.237H46.1932V23.7737H44.1992V22.6172H49.5828V23.7737H47.5789V29.237Z" fill="white"/>
<path d="M28.9141 35.4603L30.2075 32.3164H30.5668L31.8513 35.4603H31.2944L30.2884 32.9137H30.477L29.462 35.4603H28.9141ZM29.5518 34.854V34.4048H31.2181V34.854H29.5518Z" fill="#ED4137"/>
<path d="M35.4799 35.5071C35.2524 35.5071 35.0413 35.4667 34.8467 35.3859C34.6551 35.3021 34.4874 35.1867 34.3437 35.04C34.1999 34.8903 34.0892 34.7182 34.0113 34.5235C33.9334 34.3259 33.8945 34.1148 33.8945 33.8903C33.8945 33.6657 33.9334 33.4562 34.0113 33.2615C34.0892 33.0639 34.1999 32.8917 34.3437 32.745C34.4874 32.5983 34.6551 32.483 34.8467 32.3992C35.0413 32.3154 35.2524 32.2734 35.4799 32.2734C35.7344 32.2734 35.9545 32.3154 36.1401 32.3992C36.3258 32.483 36.4905 32.5968 36.6342 32.7405L36.2839 33.0908C36.1911 32.9891 36.0773 32.9096 35.9425 32.8528C35.8107 32.796 35.6566 32.7675 35.4799 32.7675C35.3243 32.7675 35.182 32.7944 35.0533 32.8483C34.9246 32.9022 34.8123 32.9801 34.7164 33.0819C34.6237 33.1807 34.5518 33.299 34.5008 33.4367C34.4499 33.5744 34.4245 33.7256 34.4245 33.8903C34.4245 34.0549 34.4499 34.2062 34.5008 34.3439C34.5518 34.4816 34.6237 34.6014 34.7164 34.7032C34.8123 34.802 34.9246 34.8783 35.0533 34.9322C35.182 34.9861 35.3243 35.0131 35.4799 35.0131C35.6715 35.0131 35.8332 34.9846 35.965 34.9278C36.0997 34.8678 36.2136 34.787 36.3063 34.6852L36.6566 35.0355C36.5129 35.1822 36.3438 35.2976 36.1491 35.3814C35.9545 35.4652 35.7314 35.5071 35.4799 35.5071Z" fill="#ED4137"/>
<path d="M38.7812 35.4603L40.0747 32.3164H40.434L41.7185 35.4603H41.1616L40.1556 32.9137H40.3442L39.3292 35.4603H38.7812ZM39.419 34.854V34.4048H41.0852V34.854H39.419Z" fill="#ED4137"/>
<path d="M44.4642 35.4603V34.9887H45.2906C45.5061 34.9887 45.6948 34.9422 45.8565 34.8495C46.0211 34.7567 46.1484 34.6278 46.2382 34.4632C46.331 34.2955 46.3774 34.1024 46.3774 33.8838C46.3774 33.6683 46.331 33.4781 46.2382 33.3135C46.1454 33.1488 46.0166 33.02 45.852 32.9272C45.6903 32.8344 45.5032 32.788 45.2906 32.788H44.4642V32.3164H45.304C45.5315 32.3164 45.7426 32.3568 45.9373 32.4377C46.132 32.5156 46.3011 32.6263 46.4448 32.77C46.5915 32.9108 46.7053 33.077 46.7861 33.2685C46.867 33.4572 46.9074 33.6638 46.9074 33.8883C46.9074 34.1099 46.867 34.3165 46.7861 34.5081C46.7053 34.6997 46.593 34.8674 46.4493 35.0111C46.3056 35.1519 46.1365 35.2627 45.9418 35.3435C45.7471 35.4214 45.5376 35.4603 45.313 35.4603H44.4642ZM44.1094 35.4603V32.3164H44.6259V35.4603H44.1094Z" fill="#ED4137"/>
<path d="M49.4102 35.4603V32.3164H49.9267V35.4603H49.4102ZM49.765 35.4603V34.9887H51.5255V35.4603H49.765ZM49.765 34.0815V33.6278H51.3728V34.0815H49.765ZM49.765 32.788V32.3164H51.5031V32.788H49.765Z" fill="#ED4137"/>
<path d="M54.0352 35.4603V32.3164H54.3945L55.7014 34.4677H55.4679L56.7748 32.3164H57.1341V35.4603H56.6176V33.2236L56.7344 33.2551L55.7643 34.8495H55.405L54.4349 33.2551L54.5516 33.2236V35.4603H54.0352Z" fill="#ED4137"/>
<path d="M60.7769 34.2027L59.5508 32.3164H60.1481L61.1047 33.821H60.8263L61.7829 32.3164H62.3713L61.1362 34.2027H60.7769ZM60.705 35.4603V33.8794H61.2215V35.4603H60.705Z" fill="#ED4137"/>
</g>
<defs>
<clipPath id="clip0_534_1341">
<rect width="62.5965" height="40" fill="white"/>
</clipPath>
</defs>
</svg>
