<svg width="112" height="30" viewBox="0 0 112 30" fill="none" xmlns="http://www.w3.org/2000/svg">
<g clip-path="url(#clip0_19_671)">
<mask id="mask0_19_671" style="mask-type:luminance" maskUnits="userSpaceOnUse" x="0" y="0" width="21" height="30">
<path d="M20.5645 0H0V30H20.5645V0Z" fill="white"/>
</mask>
<g mask="url(#mask0_19_671)">
<path d="M8.05715 0L11.8451 5.53527C10.3379 6.00068 9.03239 6.75235 8.05715 7.69807C6.88481 8.83386 6.18854 10.2496 6.18854 11.7821C6.18854 13.3152 6.88481 14.7304 8.05715 15.8667C9.03007 16.8096 10.331 17.5601 11.8342 18.0255L8.05715 23.5442L0 11.7718L8.05715 0Z" fill="#ED4137"/>
<path d="M12.5079 6.4563L8.71997 11.9916C10.2272 12.457 11.5327 13.2086 12.5079 14.1544C13.6803 15.2902 14.3765 16.7059 14.3765 18.2384C14.3765 19.7715 13.6803 21.1867 12.5079 22.323C11.535 23.2659 10.2341 24.0164 8.73093 24.4818L12.5079 30.0006L20.5651 18.2281L12.5079 6.4563Z" fill="#ED4137"/>
</g>
<path d="M30.7771 9.79274H29.0733C28.9831 8.91504 28.454 8.48912 27.3696 8.48912C26.3629 8.48912 25.8338 8.85052 25.8338 9.49586C25.8338 10.038 26.2081 10.3477 27.1633 10.5801C28.1313 10.8124 29.0733 11.0447 29.7058 11.3287C30.4546 11.6643 31.0483 12.1934 31.0483 13.4067C31.0483 15.2911 29.6283 16.1301 27.6278 16.1301C25.5111 16.1301 24.0397 15.1878 24.001 13.2647H25.7305C25.7564 14.1424 26.4921 14.6845 27.6408 14.6845C28.6991 14.6845 29.3058 14.2327 29.3058 13.4712C29.3058 12.9678 29.0477 12.6194 27.9764 12.387C26.9179 12.1547 26.234 11.9998 25.6272 11.7288C24.7108 11.3158 24.1945 10.6962 24.1945 9.61204C24.1945 8.07611 25.2401 6.979 27.3309 6.979C29.4994 6.979 30.7127 8.15355 30.7771 9.79274Z" fill="white"/>
<path d="M34.5264 14.5683C35.5075 14.5683 35.972 13.9101 35.972 12.6065C35.972 11.4706 35.3783 10.6833 34.5392 10.6833C33.7392 10.6833 33.1196 11.4319 33.1196 12.5032C33.1196 13.8843 33.5971 14.5683 34.5264 14.5683ZM33.1842 18.8405H31.532V9.48297H33.1455L33.1583 10.2574C33.5584 9.61204 34.1521 9.31519 34.9266 9.31519C36.527 9.31519 37.6757 10.5801 37.6757 12.7226C37.6757 14.6458 36.7077 16.001 35.0686 16.001C34.2811 16.001 33.6617 15.6783 33.1842 15.0072V18.8405Z" fill="white"/>
<path d="M39.8756 12.0386H42.4699C42.444 11.0963 41.8246 10.6446 41.1663 10.6446C40.4952 10.6446 39.9402 11.1609 39.8756 12.0386ZM44.1995 13.0969H39.8238C39.8756 14.052 40.4178 14.6716 41.2437 14.6716C41.7859 14.6716 42.2633 14.4005 42.3796 13.9617H44.109C43.7219 15.2653 42.6765 16.001 41.3212 16.001C39.2045 16.001 38.146 14.8394 38.146 12.5419C38.146 10.5801 39.2688 9.31519 41.2179 9.31519C43.1669 9.31519 44.1995 10.5801 44.1995 13.0969Z" fill="white"/>
<path d="M48.6256 13.4196L48.6385 12.7226C48.4708 12.8904 48.174 12.9808 47.5544 13.0969C46.5992 13.2776 46.2895 13.5487 46.2895 14.0908C46.2895 14.5683 46.5733 14.8007 47.1027 14.8007C47.9673 14.8007 48.6126 14.1682 48.6256 13.4196ZM50.3163 15.8332H48.7546C48.7031 15.6783 48.6644 15.4589 48.6513 15.2653C48.2514 15.7041 47.58 16.001 46.7281 16.001C45.2826 16.001 44.6115 15.2911 44.6115 14.2586C44.6115 12.4258 45.8376 12.2193 47.5285 11.9869C48.3675 11.8708 48.5998 11.703 48.5998 11.2641C48.5998 10.8511 48.1868 10.6059 47.5285 10.6059C46.7669 10.6059 46.4572 10.9802 46.3798 11.5481H44.8181C44.8437 10.2316 45.5666 9.31519 47.6059 9.31519C49.6195 9.31519 50.3163 10.2187 50.3163 11.8191V15.8332Z" fill="white"/>
<path d="M56.8387 15.8332H54.9542L53.5604 12.9807L52.7473 13.8197V15.8332H51.0564V7.15967H52.7473V11.8965L54.8381 9.48293H56.8904L54.7607 11.8191L56.8387 15.8332Z" fill="white"/>
<path d="M59.6059 15.8332H57.9537V10.6704H57.0116V9.48293H57.9537C57.9537 7.93408 58.8445 7.15967 60.6513 7.15967V8.51489C59.7994 8.51489 59.6059 8.74722 59.6059 9.48293H60.69V10.6704H59.6059V15.8332Z" fill="white"/>
<path d="M62.7801 15.8332H61.1021V9.48297H62.6768V10.2445C63.2318 9.39263 63.8771 9.31519 64.5612 9.31519H64.7807V11.0318C64.6258 11.006 64.471 10.9931 64.3159 10.9931C63.2833 10.9931 62.7801 11.5094 62.7801 12.529V15.8332Z" fill="white"/>
<path d="M66.4459 12.0386H69.0402C69.0143 11.0963 68.3947 10.6446 67.7366 10.6446C67.0655 10.6446 66.5105 11.1609 66.4459 12.0386ZM70.7698 13.0969H66.3941C66.4459 14.052 66.9878 14.6716 67.8141 14.6716C68.356 14.6716 68.8336 14.4005 68.9497 13.9617H70.6793C70.2922 15.2653 69.2468 16.001 67.8915 16.001C65.7748 16.001 64.7163 14.8394 64.7163 12.5419C64.7163 10.5801 65.8391 9.31519 67.7882 9.31519C69.7372 9.31519 70.7698 10.5801 70.7698 13.0969Z" fill="white"/>
<path d="M77.106 15.8332H75.4153V11.9869C75.4153 11.006 75.1313 10.7349 74.331 10.7349C73.4535 10.7349 73.0274 11.2254 73.0274 12.1934V15.8332H71.3496V9.48297H72.95V10.4123C73.3371 9.70238 73.9826 9.31519 75.0021 9.31519C76.2154 9.31519 77.106 10.0509 77.106 11.4319V15.8332Z" fill="white"/>
<path d="M81.8679 13.5358H83.5588C83.378 15.0072 82.1778 16.001 80.6417 16.001C78.9122 16.001 77.7247 14.8523 77.7247 12.5807C77.7247 10.309 78.9121 9.31519 80.6935 9.31519C82.3455 9.31519 83.4685 10.2574 83.5716 11.7546H81.8809C81.7905 11.0963 81.3129 10.7091 80.6805 10.7091C79.9706 10.7091 79.3897 11.1609 79.3897 12.5419C79.3897 13.923 79.9706 14.5941 80.6289 14.5941C81.2872 14.5941 81.8035 14.2198 81.8679 13.5358Z" fill="white"/>
<path d="M89.8115 15.8332H88.1207V11.8965C88.1207 10.9414 87.7979 10.6446 87.0365 10.6446C86.1975 10.6446 85.7328 11.3415 85.7328 12.1934V15.8332H84.0549V7.15967H85.7328V10.309C85.9781 9.74107 86.7525 9.31514 87.6044 9.31514C88.9079 9.31514 89.8115 10.0766 89.8115 11.3415V15.8332Z" fill="white"/>
<path d="M92.5038 15.8332H90.8516V10.6704H89.9093V9.48293H90.8516C90.8516 7.93408 91.7422 7.15967 93.5492 7.15967V8.51489C92.6974 8.51489 92.5038 8.74722 92.5038 9.48293H93.5879V10.6704H92.5038V15.8332Z" fill="white"/>
<path d="M97.5309 13.4196L97.544 12.7226C97.3761 12.8904 97.0792 12.9808 96.4596 13.0969C95.5047 13.2776 95.1948 13.5487 95.1948 14.0908C95.1948 14.5683 95.4788 14.8007 96.0079 14.8007C96.8729 14.8007 97.5181 14.1682 97.5309 13.4196ZM99.2218 15.8332H97.6601C97.6083 15.6783 97.5696 15.4589 97.5568 15.2653C97.1566 15.7041 96.4855 16.001 95.6337 16.001C94.1881 16.001 93.517 15.2911 93.517 14.2586C93.517 12.4258 94.7431 12.2193 96.434 11.9869C97.2728 11.8708 97.5053 11.703 97.5053 11.2641C97.5053 10.8511 97.0923 10.6059 96.434 10.6059C95.6724 10.6059 95.3627 10.9802 95.2853 11.5481H93.7233C93.7492 10.2316 94.4721 9.31519 96.5114 9.31519C98.5248 9.31519 99.2218 10.2187 99.2218 11.8191V15.8332Z" fill="white"/>
<path d="M105.396 11.4061H103.782C103.692 10.7866 103.356 10.5672 102.595 10.5672C101.963 10.5672 101.601 10.722 101.601 11.0963C101.601 11.4706 101.949 11.6255 102.634 11.8191C103.356 12.0256 104.041 12.1676 104.531 12.3612C105.202 12.6323 105.576 13.0711 105.576 13.8972C105.576 15.2137 104.608 16.001 102.801 16.001C100.853 16.001 99.7682 15.0846 99.7426 13.7939H101.472C101.472 14.3876 101.975 14.7361 102.789 14.7361C103.382 14.7361 103.911 14.5554 103.911 14.0779C103.911 13.6261 103.434 13.4841 102.892 13.3551C101.821 13.0969 101.227 12.9162 100.775 12.6323C100.181 12.258 99.9748 11.7675 99.9748 11.1996C99.9748 10.1283 100.711 9.31519 102.647 9.31519C104.479 9.31519 105.305 10.038 105.396 11.4061Z" fill="white"/>
<path d="M109.575 13.3035V11.6514H111.137V13.4584C111.137 14.8007 110.362 16.001 108.569 16.001C106.71 16.001 105.974 14.8136 105.974 13.4454V7.76636H107.626V9.48299H111.137V10.6704H107.626V13.2776C107.626 14.0779 107.91 14.5425 108.594 14.5425C109.266 14.5425 109.575 14.0908 109.575 13.3035Z" fill="white"/>
<path d="M58.1265 22.963L59.7987 18.8984H60.2632L61.9239 22.963H61.2039L59.9032 19.6707H60.1471L58.8349 22.963H58.1265ZM58.951 22.1791V21.5984H61.1052V22.1791H58.951Z" fill="#ED4137"/>
<path d="M68.2433 23.0212C67.9491 23.0212 67.6762 22.969 67.4246 22.8644C67.1768 22.7561 66.9601 22.607 66.7742 22.4173C66.5884 22.2238 66.4452 22.0012 66.3446 21.7496C66.2439 21.4941 66.1936 21.2212 66.1936 20.9309C66.1936 20.6406 66.2439 20.3696 66.3446 20.118C66.4452 19.8625 66.5884 19.6399 66.7742 19.4503C66.9601 19.2606 67.1768 19.1115 67.4246 19.0032C67.6762 18.8948 67.9491 18.8406 68.2433 18.8406C68.5723 18.8406 68.8568 18.8948 69.0968 19.0032C69.3368 19.1115 69.5497 19.2586 69.7355 19.4444L69.2826 19.8973C69.1626 19.7657 69.0155 19.6632 68.8413 19.5896C68.671 19.5161 68.4717 19.4793 68.2433 19.4793C68.042 19.4793 67.8581 19.5141 67.6917 19.5838C67.5252 19.6535 67.3801 19.7541 67.2562 19.8857C67.1362 20.0135 67.0433 20.1664 66.9775 20.3444C66.9117 20.5225 66.8788 20.718 66.8788 20.9309C66.8788 21.1438 66.9117 21.3393 66.9775 21.5174C67.0433 21.6954 67.1362 21.8503 67.2562 21.9819C67.3801 22.1096 67.5252 22.2083 67.6917 22.278C67.8581 22.3477 68.042 22.3825 68.2433 22.3825C68.491 22.3825 68.7001 22.3457 68.8704 22.2722C69.0446 22.1948 69.1917 22.0903 69.3117 21.9586L69.7646 22.4115C69.5788 22.6012 69.3601 22.7503 69.1084 22.8586C68.8568 22.967 68.5684 23.0212 68.2433 23.0212Z" fill="#ED4137"/>
<path d="M74.137 22.963L75.8092 18.8984H76.2737L77.9344 22.963H77.2144L75.9137 19.6707H76.1576L74.8453 22.963H74.137ZM74.9615 22.1791V21.5984H77.1157V22.1791H74.9615Z" fill="#ED4137"/>
<path d="M83.11 22.963V22.3533H84.1783C84.4571 22.3533 84.7009 22.2933 84.91 22.1733C85.1229 22.0533 85.2874 21.8868 85.4035 21.6739C85.5235 21.4571 85.5835 21.2075 85.5835 20.9249C85.5835 20.6462 85.5235 20.4004 85.4035 20.1875C85.2835 19.9746 85.1171 19.8081 84.9042 19.6881C84.6951 19.5681 84.4532 19.5081 84.1783 19.5081H83.11V18.8984H84.1958C84.49 18.8984 84.7629 18.9507 85.0145 19.0552C85.2661 19.1559 85.4848 19.2991 85.6706 19.4849C85.8603 19.6668 86.0074 19.8817 86.1119 20.1294C86.2164 20.3733 86.2687 20.6404 86.2687 20.9307C86.2687 21.2171 86.2164 21.4842 86.1119 21.732C86.0074 21.9797 85.8622 22.1965 85.6764 22.3823C85.4906 22.5642 85.2719 22.7075 85.0203 22.812C84.7687 22.9126 84.4977 22.963 84.2074 22.963H83.11ZM82.6512 22.963V18.8984H83.319V22.963H82.6512Z" fill="#ED4137"/>
<path d="M91.1301 22.963V18.8984H91.7979V22.963H91.1301ZM91.5888 22.963V22.3533H93.865V22.963H91.5888ZM91.5888 21.1804V20.5939H93.6675V21.1804H91.5888ZM91.5888 19.5081V18.8984H93.8359V19.5081H91.5888Z" fill="#ED4137"/>
<path d="M98.7356 22.963V18.8984H99.2001L100.89 21.6797H100.588L102.278 18.8984H102.742V22.963H102.074V20.0713L102.225 20.112L100.971 22.1733H100.507L99.2524 20.112L99.4033 20.0713V22.963H98.7356Z" fill="#ED4137"/>
<path d="M109.076 21.3371L107.49 18.8984H108.263L109.5 20.8436H109.14L110.376 18.8984H111.137L109.54 21.3371H109.076ZM108.983 22.963V20.9191H109.65V22.963H108.983Z" fill="#ED4137"/>
</g>
<defs>
<clipPath id="clip0_19_671">
<rect width="111.29" height="30" fill="white"/>
</clipPath>
</defs>
</svg>
