<svg width="167" height="45" viewBox="0 0 167 45" fill="none" xmlns="http://www.w3.org/2000/svg">
<g clip-path="url(#clip0_263_370)">
<mask id="mask0_263_370" style="mask-type:luminance" maskUnits="userSpaceOnUse" x="0" y="0" width="31" height="45">
<path d="M30.8468 0H0V45H30.8468V0Z" fill="white"/>
</mask>
<g mask="url(#mask0_263_370)">
<path d="M12.0857 0L17.7677 8.3029C15.5068 9.00102 13.5486 10.1285 12.0857 11.5471C10.3272 13.2508 9.28281 15.3744 9.28281 17.6732C9.28281 19.9728 10.3272 22.0955 12.0857 23.8001C13.5451 25.2144 15.4964 26.3402 17.7512 27.0383L12.0857 35.3163L0 17.6577L12.0857 0Z" fill="#ED4137"/>
<path d="M18.7619 9.68457L13.08 17.9875C15.3408 18.6856 17.299 19.8131 18.7619 21.2317C20.5204 22.9354 21.5648 25.059 21.5648 27.3577C21.5648 29.6574 20.5204 31.7801 18.7619 33.4847C17.3025 34.899 15.3511 36.0247 13.0964 36.7229L18.7619 45.001L30.8476 27.3423L18.7619 9.68457Z" fill="#ED4137"/>
</g>
<path d="M46.1656 14.6889H43.61C43.4747 13.3723 42.681 12.7334 41.0545 12.7334C39.5444 12.7334 38.7507 13.2755 38.7507 14.2435C38.7507 15.0567 39.3122 15.5214 40.7449 15.8699C42.1969 16.2183 43.61 16.5668 44.5586 16.9928C45.6818 17.4961 46.5724 18.2899 46.5724 20.1098C46.5724 22.9364 44.4425 24.1949 41.4417 24.1949C38.2666 24.1949 36.0596 22.7815 36.0015 19.8968H38.5958C38.6346 21.2134 39.7382 22.0265 41.4613 22.0265C43.0486 22.0265 43.9588 21.3489 43.9588 20.2066C43.9588 19.4515 43.5716 18.9288 41.9646 18.5803C40.3769 18.2318 39.351 17.9995 38.4408 17.5929C37.0662 16.9734 36.2917 16.0441 36.2917 14.4178C36.2917 12.1139 37.8602 10.4683 40.9964 10.4683C44.2491 10.4683 46.0691 12.2301 46.1656 14.6889Z" fill="#00182F"/>
<path d="M51.7895 21.8524C53.2611 21.8524 53.9579 20.865 53.9579 18.9096C53.9579 17.2058 53.0673 16.0249 51.8087 16.0249C50.6086 16.0249 49.6792 17.1478 49.6792 18.7547C49.6792 20.8263 50.3956 21.8524 51.7895 21.8524ZM49.7761 28.2607H47.2979V14.2243H49.7181L49.7373 15.3859C50.3375 14.4179 51.2281 13.9727 52.3897 13.9727C54.7904 13.9727 56.5134 15.87 56.5134 19.0838C56.5134 21.9685 55.0614 24.0014 52.6028 24.0014C51.4215 24.0014 50.4925 23.5174 49.7761 22.5106V28.2607Z" fill="#00182F"/>
<path d="M59.8134 18.0577H63.7048C63.666 16.6444 62.7369 15.9668 61.7495 15.9668C60.7428 15.9668 59.9103 16.7412 59.8134 18.0577ZM66.2992 19.6453H59.7357C59.8134 21.0779 60.6267 22.0073 61.8656 22.0073C62.6789 22.0073 63.3949 21.6007 63.5694 20.9424H66.1635C65.5828 22.8978 64.0147 24.0014 61.9817 24.0014C58.8067 24.0014 57.219 22.2589 57.219 18.8128C57.219 15.87 58.9032 13.9727 61.8268 13.9727C64.7503 13.9727 66.2992 15.87 66.2992 19.6453Z" fill="#00182F"/>
<path d="M72.9385 20.1293L72.9578 19.0838C72.7063 19.3355 72.261 19.471 71.3316 19.6453C69.8988 19.9163 69.4343 20.3229 69.4343 21.136C69.4343 21.8524 69.86 22.2009 70.654 22.2009C71.9511 22.2009 72.9189 21.2522 72.9385 20.1293ZM75.4745 23.7497H73.132C73.0547 23.5174 72.9966 23.1883 72.977 22.8978C72.3771 23.5561 71.3701 24.0014 70.0923 24.0014C67.9239 24.0014 66.9172 22.9365 66.9172 21.3877C66.9172 18.6385 68.7564 18.3288 71.2928 17.9803C72.5513 17.806 72.8997 17.5543 72.8997 16.8961C72.8997 16.2765 72.2802 15.9087 71.2928 15.9087C70.1503 15.9087 69.6858 16.4702 69.5697 17.322H67.2272C67.2656 15.3472 68.35 13.9727 71.4089 13.9727C74.4293 13.9727 75.4745 15.3279 75.4745 17.7286V23.7497Z" fill="#00182F"/>
<path d="M85.258 23.7498H82.4313L80.3406 19.4711L79.1209 20.7295V23.7498H76.5846V10.7395H79.1209V17.8448L82.2571 14.2244H85.3356L82.141 17.7287L85.258 23.7498Z" fill="#00182F"/>
<path d="M89.4089 23.7498H86.9306V16.0056H85.5175V14.2244H86.9306C86.9306 11.9011 88.2668 10.7395 90.977 10.7395V12.7723C89.6992 12.7723 89.4089 13.1208 89.4089 14.2244H91.035V16.0056H89.4089V23.7498Z" fill="#00182F"/>
<path d="M94.1702 23.7497H91.6531V14.2243H94.0152V15.3666C94.8477 14.0888 95.8156 13.9727 96.8419 13.9727H97.171V16.5476C96.9388 16.5089 96.7065 16.4895 96.4739 16.4895C94.925 16.4895 94.1702 17.2639 94.1702 18.7934V23.7497Z" fill="#00182F"/>
<path d="M99.6689 18.0577H103.56C103.521 16.6444 102.592 15.9668 101.605 15.9668C100.598 15.9668 99.7658 16.7412 99.6689 18.0577ZM106.155 19.6453H99.5912C99.6689 21.0779 100.482 22.0073 101.721 22.0073C102.534 22.0073 103.25 21.6007 103.425 20.9424H106.019C105.438 22.8978 103.87 24.0014 101.837 24.0014C98.6622 24.0014 97.0745 22.2589 97.0745 18.8128C97.0745 15.87 98.7587 13.9727 101.682 13.9727C104.606 13.9727 106.155 15.87 106.155 19.6453Z" fill="#00182F"/>
<path d="M115.659 23.7497H113.123V17.9803C113.123 16.5089 112.697 16.1023 111.497 16.1023C110.18 16.1023 109.541 16.838 109.541 18.29V23.7497H107.025V14.2243H109.425V15.6183C110.006 14.5534 110.974 13.9727 112.503 13.9727C114.323 13.9727 115.659 15.0762 115.659 17.1478V23.7497Z" fill="#00182F"/>
<path d="M122.802 20.3035H125.338C125.067 22.5106 123.267 24.0014 120.963 24.0014C118.368 24.0014 116.587 22.2783 116.587 18.8709C116.587 15.4634 118.368 13.9727 121.04 13.9727C123.518 13.9727 125.203 15.3859 125.357 17.6318H122.821C122.686 16.6444 121.969 16.0636 121.021 16.0636C119.956 16.0636 119.085 16.7412 119.085 18.8128C119.085 20.8843 119.956 21.8911 120.943 21.8911C121.931 21.8911 122.705 21.3296 122.802 20.3035Z" fill="#00182F"/>
<path d="M134.717 23.7498H132.181V17.8448C132.181 16.4121 131.697 15.9668 130.555 15.9668C129.296 15.9668 128.599 17.0123 128.599 18.2901V23.7498H126.082V10.7395H128.599V15.4634C128.967 14.6116 130.129 13.9727 131.407 13.9727C133.362 13.9727 134.717 15.115 134.717 17.0123V23.7498Z" fill="#00182F"/>
<path d="M138.756 23.7498H136.277V16.0056H134.864V14.2244H136.277C136.277 11.9011 137.613 10.7395 140.324 10.7395V12.7723C139.046 12.7723 138.756 13.1208 138.756 14.2244H140.382V16.0056H138.756V23.7498Z" fill="#00182F"/>
<path d="M146.296 20.1293L146.316 19.0838C146.064 19.3355 145.619 19.471 144.69 19.6453C143.257 19.9163 142.792 20.3229 142.792 21.136C142.792 21.8524 143.218 22.2009 144.012 22.2009C145.309 22.2009 146.277 21.2522 146.296 20.1293ZM148.833 23.7497H146.49C146.413 23.5174 146.355 23.1883 146.335 22.8978C145.735 23.5561 144.728 24.0014 143.451 24.0014C141.282 24.0014 140.276 22.9365 140.276 21.3877C140.276 18.6385 142.115 18.3288 144.651 17.9803C145.909 17.806 146.258 17.5543 146.258 16.8961C146.258 16.2765 145.638 15.9087 144.651 15.9087C143.509 15.9087 143.044 16.4702 142.928 17.322H140.585C140.624 15.3472 141.708 13.9727 144.767 13.9727C147.787 13.9727 148.833 15.3279 148.833 17.7286V23.7497Z" fill="#00182F"/>
<path d="M158.093 17.109H155.674C155.538 16.1797 155.034 15.8506 153.892 15.8506C152.944 15.8506 152.402 16.0829 152.402 16.6444C152.402 17.2058 152.924 17.4382 153.95 17.7286C155.034 18.0383 156.061 18.2513 156.796 18.5417C157.803 18.9483 158.364 19.6065 158.364 20.8456C158.364 22.8204 156.912 24.0014 154.202 24.0014C151.279 24.0014 149.652 22.6268 149.614 20.6908H152.208C152.208 21.5813 152.963 22.104 154.183 22.104C155.073 22.104 155.867 21.833 155.867 21.1167C155.867 20.439 155.151 20.2261 154.338 20.0325C152.731 19.6453 151.84 19.3742 151.162 18.9483C150.272 18.3868 149.962 17.6512 149.962 16.7993C149.962 15.1923 151.066 13.9727 153.97 13.9727C156.719 13.9727 157.958 15.0568 158.093 17.109Z" fill="#00182F"/>
<path d="M164.363 19.9551V17.4769H166.705V20.1874C166.705 22.2009 165.544 24.0014 162.853 24.0014C160.065 24.0014 158.961 22.2202 158.961 20.168V11.6494H161.439V14.2244H166.705V16.0055H161.439V19.9164C161.439 21.1167 161.865 21.8137 162.891 21.8137C163.898 21.8137 164.363 21.1361 164.363 19.9551Z" fill="#00182F"/>
<path d="M87.1897 34.4447L89.6981 28.3479H90.3949L92.8858 34.4447H91.8058L89.8549 29.5063H90.2207L88.2523 34.4447H87.1897ZM88.4265 33.2689V32.3979H91.6578V33.2689H88.4265Z" fill="#ED4137"/>
<path d="M102.365 34.5317C101.924 34.5317 101.514 34.4533 101.137 34.2965C100.765 34.134 100.44 33.9104 100.161 33.6259C99.8825 33.3356 99.6677 33.0017 99.5167 32.6243C99.3658 32.2411 99.2903 31.8317 99.2903 31.3962C99.2903 30.9607 99.3658 30.5543 99.5167 30.1769C99.6677 29.7936 99.8825 29.4598 100.161 29.1753C100.44 28.8907 100.765 28.6672 101.137 28.5046C101.514 28.342 101.924 28.2607 102.365 28.2607C102.858 28.2607 103.285 28.342 103.645 28.5046C104.005 28.6672 104.324 28.8878 104.603 29.1665L103.924 29.8459C103.744 29.6485 103.523 29.4946 103.262 29.3843C103.006 29.274 102.707 29.2188 102.365 29.2188C102.063 29.2188 101.787 29.2711 101.537 29.3756C101.288 29.4801 101.07 29.6311 100.884 29.8285C100.704 30.0201 100.565 30.2495 100.466 30.5165C100.367 30.7836 100.318 31.0769 100.318 31.3962C100.318 31.7156 100.367 32.0088 100.466 32.2759C100.565 32.543 100.704 32.7753 100.884 32.9727C101.07 33.1643 101.288 33.3124 101.537 33.4169C101.787 33.5214 102.063 33.5736 102.365 33.5736C102.736 33.5736 103.05 33.5185 103.305 33.4082C103.567 33.292 103.787 33.1353 103.967 32.9378L104.647 33.6172C104.368 33.9017 104.04 34.1253 103.663 34.2878C103.285 34.4504 102.853 34.5317 102.365 34.5317Z" fill="#ED4137"/>
<path d="M111.206 34.4447L113.714 28.3479H114.411L116.902 34.4447H115.822L113.871 29.5063H114.237L112.268 34.4447H111.206ZM112.442 33.2689V32.3979H115.674V33.2689H112.442Z" fill="#ED4137"/>
<path d="M124.665 34.4447V33.5302H126.267C126.686 33.5302 127.051 33.4402 127.365 33.2602C127.684 33.0802 127.931 32.8305 128.105 32.5111C128.285 32.186 128.375 31.8114 128.375 31.3876C128.375 30.9695 128.285 30.6008 128.105 30.2814C127.925 29.9621 127.676 29.7124 127.356 29.5324C127.043 29.3524 126.68 29.2624 126.267 29.2624H124.665V28.3479H126.294C126.735 28.3479 127.144 28.4263 127.522 28.5831C127.899 28.734 128.227 28.9489 128.506 29.2276C128.79 29.5005 129.011 29.8227 129.168 30.1944C129.325 30.5602 129.403 30.9608 129.403 31.3963C129.403 31.826 129.325 32.2266 129.168 32.5982C129.011 32.9698 128.793 33.295 128.515 33.5737C128.236 33.8466 127.908 34.0614 127.53 34.2182C127.153 34.3692 126.746 34.4447 126.311 34.4447H124.665ZM123.977 34.4447V28.3479H124.978V34.4447H123.977Z" fill="#ED4137"/>
<path d="M136.695 34.4447V28.3479H137.697V34.4447H136.695ZM137.383 34.4447V33.5302H140.797V34.4447H137.383ZM137.383 31.7708V30.8911H140.501V31.7708H137.383ZM137.383 29.2624V28.3479H140.754V29.2624H137.383Z" fill="#ED4137"/>
<path d="M148.103 34.4447V28.3479H148.8L151.335 32.5198H150.882L153.416 28.3479H154.113V34.4447H153.111V30.1073L153.338 30.1682L151.456 33.2602H150.76L148.878 30.1682L149.105 30.1073V34.4447H148.103Z" fill="#ED4137"/>
<path d="M163.613 32.006L161.236 28.3479H162.394L164.249 31.2656H163.709L165.564 28.3479H166.705L164.31 32.006H163.613ZM163.474 34.4447V31.3789H164.476V34.4447H163.474Z" fill="#ED4137"/>
</g>
<defs>
<clipPath id="clip0_263_370">
<rect width="166.935" height="45" fill="white"/>
</clipPath>
</defs>
</svg>
