<svg width="40" height="40" viewBox="0 0 40 40" fill="none" xmlns="http://www.w3.org/2000/svg">
<rect width="40" height="40" rx="6" fill="white"/>
<path opacity="0.4" d="M20 20.5418V21.0835H11.3334V20.5418C11.3334 18.4991 11.3334 17.4777 11.968 16.8431C12.6026 16.2085 13.624 16.2085 15.6667 16.2085C17.7095 16.2085 18.7308 16.2085 19.3654 16.8431C20 17.4777 20 18.4991 20 20.5418Z" fill="#4465AE"/>
<path opacity="0.4" d="M17.8333 24.3335L20 30.8335H11.3333L9.16663 24.3335H17.8333Z" fill="#4465AE"/>
<path opacity="0.4" d="M27.5833 21.0832C27.5833 22.2798 26.6133 23.2498 25.4167 23.2498C24.22 23.2498 23.25 22.2798 23.25 21.0832C23.25 19.8865 24.22 18.9165 25.4167 18.9165C26.6133 18.9165 27.5833 19.8865 27.5833 21.0832Z" fill="#4465AE"/>
<path d="M20 30.8335L17.8333 24.3335H9.16663L11.3333 30.8335H20ZM20 30.8335H24.3333" stroke="#4465AE" stroke-width="1.5" stroke-linecap="round" stroke-linejoin="round"/>
<path d="M20 21.0835V20.5418C20 18.4991 20 17.4777 19.3654 16.8431C18.7308 16.2085 17.7095 16.2085 15.6667 16.2085C13.624 16.2085 12.6026 16.2085 11.968 16.8431C11.3334 17.4777 11.3334 18.4991 11.3334 20.5418V21.0835" stroke="#4465AE" stroke-width="1.5" stroke-linecap="round" stroke-linejoin="round"/>
<path d="M27.5833 21.0832C27.5833 22.2798 26.6133 23.2498 25.4167 23.2498C24.22 23.2498 23.25 22.2798 23.25 21.0832C23.25 19.8865 24.22 18.9165 25.4167 18.9165C26.6133 18.9165 27.5833 19.8865 27.5833 21.0832Z" stroke="#4465AE" stroke-width="1.5"/>
<path d="M17.8333 11.3332C17.8333 12.5298 16.8633 13.4998 15.6667 13.4998C14.47 13.4998 13.5 12.5298 13.5 11.3332C13.5 10.1366 14.47 9.1665 15.6667 9.1665C16.8633 9.1665 17.8333 10.1366 17.8333 11.3332Z" stroke="#4465AE" stroke-width="1.5"/>
<path d="M22.1666 25.9585H28.6666C29.8633 25.9585 30.8333 26.9285 30.8333 28.1252V28.6668C30.8333 29.8635 29.8633 30.8335 28.6666 30.8335H27.5833" stroke="#4465AE" stroke-width="1.5" stroke-linecap="round"/>
</svg>
