<svg width="20" height="20" viewBox="0 0 20 20" fill="none" xmlns="http://www.w3.org/2000/svg">
<path opacity="0.4" d="M10.0477 1.45825H9.95237C8.12682 1.45824 6.6929 1.45824 5.57339 1.60874C4.42618 1.76299 3.51597 2.08551 2.8008 2.80068C2.08564 3.51584 1.76311 4.42606 1.60887 5.57327C1.45836 6.69279 1.45837 8.12669 1.45837 9.95225V10.0476C1.45837 11.8732 1.45836 13.3071 1.60887 14.4266C1.76311 15.5738 2.08564 16.484 2.8008 17.1992C3.51597 17.9143 4.42618 18.2368 5.57339 18.3911C6.69291 18.5416 8.12679 18.5416 9.95237 18.5416H10.0477C11.8733 18.5416 13.3072 18.5416 14.4267 18.3911C15.5739 18.2368 16.4841 17.9143 17.1993 17.1992C17.9145 16.484 18.237 15.5738 18.3912 14.4266C18.5417 13.3071 18.5417 11.8732 18.5417 10.0476V9.95225C18.5417 8.1267 18.5417 6.69279 18.3912 5.57327C18.237 4.42606 17.9145 3.51584 17.1993 2.80068C16.4841 2.08551 15.5739 1.76299 14.4267 1.60874C13.3072 1.45824 11.8733 1.45824 10.0477 1.45825Z" fill="#ED4137"/>
<path d="M14.1666 5.62501L13.268 5.625C12.5384 5.62495 11.8895 5.62489 11.3657 5.69532C10.7964 5.77187 10.2215 5.94839 9.75154 6.41826C9.28163 6.88815 9.10513 7.46306 9.02863 8.03243C8.95821 8.55625 8.95821 9.20509 8.95829 9.93475V10.625H8.33329C7.75799 10.625 7.29163 11.0914 7.29163 11.6667C7.29163 12.242 7.75799 12.7083 8.33329 12.7083H8.95829V18.5407C9.27596 18.5417 9.60713 18.5417 9.95229 18.5417H10.0476C10.3928 18.5417 10.724 18.5417 11.0416 18.5407V12.7083H12.5C13.0753 12.7083 13.5416 12.242 13.5416 11.6667C13.5416 11.0914 13.0753 10.625 12.5 10.625H11.0416V10C11.0416 9.18492 11.0439 8.67834 11.0934 8.31002C11.138 7.9776 11.204 7.91194 11.2237 7.8924L11.2247 7.8914L11.2257 7.89039C11.2452 7.87077 11.3109 7.80477 11.6433 7.76008C12.0116 7.71055 12.5182 7.70834 13.3333 7.70834H14.1666C14.742 7.70834 15.2083 7.24197 15.2083 6.66668C15.2083 6.09138 14.742 5.62501 14.1666 5.62501Z" fill="#ED4137"/>
</svg>
