<svg width="20" height="20" viewBox="0 0 20 20" fill="none" xmlns="http://www.w3.org/2000/svg">
<path opacity="0.4" d="M10.0477 1.45825C11.8733 1.45824 13.3072 1.45824 14.4267 1.60874C15.5739 1.76299 16.4841 2.08552 17.1993 2.80068C17.9145 3.51584 18.237 4.42606 18.3912 5.57327C18.5417 6.69279 18.5417 8.12667 18.5417 9.95225V10.0476C18.5417 11.8732 18.5417 13.3071 18.3912 14.4266C18.237 15.5738 17.9145 16.484 17.1993 17.1992C16.4841 17.9143 15.5739 18.2368 14.4267 18.3911C13.3072 18.5416 11.8733 18.5416 10.0477 18.5416H9.95237C8.12679 18.5416 6.69291 18.5416 5.57339 18.3911C4.42618 18.2368 3.51597 17.9143 2.8008 17.1992C2.08564 16.484 1.76311 15.5738 1.60887 14.4266C1.45836 13.3071 1.45837 11.8732 1.45837 10.0476V9.95225C1.45837 8.12669 1.45836 6.69279 1.60887 5.57327C1.76311 4.42606 2.08564 3.51584 2.8008 2.80068C3.51597 2.08552 4.42618 1.76299 5.57339 1.60874C6.69291 1.45824 8.12681 1.45824 9.95237 1.45825H10.0477Z" fill="#ED4137"/>
<path d="M13.75 10C13.75 12.0711 12.0711 13.75 10 13.75C7.92893 13.75 6.25 12.0711 6.25 10C6.25 7.92893 7.92893 6.25 10 6.25C12.0711 6.25 13.75 7.92893 13.75 10Z" fill="#ED4137"/>
<path fill-rule="evenodd" clip-rule="evenodd" d="M15.4231 5.41659C15.4231 5.87682 15.0517 6.24992 14.5936 6.24992H14.5861C14.1279 6.24992 13.7565 5.87682 13.7565 5.41659C13.7565 4.95634 14.1279 4.58325 14.5861 4.58325H14.5936C15.0517 4.58325 15.4231 4.95635 15.4231 5.41659Z" fill="#ED4137"/>
</svg>
