<svg width="32" height="32" viewBox="0 0 32 32" fill="none" xmlns="http://www.w3.org/2000/svg">
<rect width="32" height="32" rx="6" fill="white"/>
<path opacity="0.4" d="M23.1933 20.2098C23.9179 18.9743 24.3333 17.5356 24.3333 15.9998C24.3333 11.3975 20.6023 7.6665 16 7.6665C11.3976 7.6665 7.66667 11.3975 7.66667 15.9998C7.66667 20.6022 11.3976 24.3332 16 24.3332C17.1903 24.3332 18.3223 24.0836 19.3467 23.6339C19.4144 23.1929 19.7269 22.6683 19.9462 22.3004C20.0163 22.1826 20.077 22.0808 20.1169 22.0029C20.3564 21.5365 20.3521 21.2881 20.1169 20.8301C20.077 20.7523 20.0163 20.6504 19.9462 20.5326C19.6009 19.9532 19.0243 18.9852 19.5366 18.5668C19.7884 18.3613 20.312 18.644 21.3593 19.2095L22.2878 19.711C22.6335 19.8976 22.9353 20.0606 23.1933 20.2098Z" fill="#4465AE"/>
<path d="M16 12.6665V15.9998L17.25 17.2498" stroke="#4465AE" stroke-width="1.25" stroke-linecap="round" stroke-linejoin="round"/>
<path d="M22.2878 19.7111C23.6515 20.4475 24.3333 20.8157 24.3333 21.4166C24.3333 22.0176 23.6515 22.3858 22.2878 23.1221L21.3593 23.6236C20.312 24.1891 19.7884 24.4719 19.5366 24.2663C18.92 23.7628 19.8806 22.4634 20.1169 22.0031C20.3564 21.5366 20.3521 21.2882 20.1169 20.8302C19.8806 20.3699 18.92 19.0705 19.5366 18.567C19.7884 18.3614 20.312 18.6441 21.3593 19.2096L22.2878 19.7111Z" stroke="#4465AE" stroke-width="1.25"/>
<path d="M16.8551 24.2898C16.574 24.3185 16.2887 24.3332 16 24.3332C11.3976 24.3332 7.66667 20.6022 7.66667 15.9998C7.66667 11.3975 11.3976 7.6665 16 7.6665C20.6023 7.6665 24.3333 11.3975 24.3333 15.9998C24.3333 16.5706 24.2759 17.128 24.1667 17.6665" stroke="#4465AE" stroke-width="1.25" stroke-linecap="round"/>
</svg>
