<svg width="40" height="40" viewBox="0 0 40 40" fill="none" xmlns="http://www.w3.org/2000/svg">
<rect width="40" height="40" rx="6" fill="white"/>
<path opacity="0.4" d="M17.8333 9.1665H22.1666C21.3 9.1665 20.7312 9.49042 20.5553 9.65237C20 10.1382 20 10.9202 20 12.4842V13.4321C20 14.9961 20 15.7781 20.5553 16.264C21.1105 16.7498 22.0042 16.7498 23.7916 16.7498H24.3333C26.1207 16.7498 27.0144 16.7498 27.5696 16.264L28.1932 14.4739C29.3392 15.3013 29.9122 15.715 30.3728 15.5153C30.6329 15.4024 30.7461 15.1421 30.7954 14.6982C30.8333 15.5611 30.8333 16.5881 30.8333 17.8332C30.8333 21.3856 30.8333 23.1619 29.9517 24.421C29.6255 24.8869 29.2203 25.292 28.7545 25.6182C27.4953 26.4998 25.7191 26.4998 22.1666 26.4998H17.8333C14.2808 26.4998 12.5045 26.4998 11.2454 25.6182C10.7796 25.292 10.3744 24.8869 10.0483 24.421C9.16663 23.1619 9.16663 21.3856 9.16663 17.8332C9.16663 14.2807 9.16663 12.5044 10.0483 11.2453C10.3744 10.7795 10.7796 10.3743 11.2454 10.0481C12.5045 9.1665 14.2808 9.1665 17.8333 9.1665Z" fill="#4465AE"/>
<path d="M18.9166 23.25H21.0833" stroke="#4465AE" stroke-width="1.625" stroke-linecap="round" stroke-linejoin="round"/>
<path d="M20 26.5V30.8333" stroke="#4465AE" stroke-width="1.625"/>
<path d="M15.6666 30.8335H24.3333" stroke="#4465AE" stroke-width="1.625" stroke-linecap="round"/>
<path d="M16.75 9.16895C13.9057 9.178 12.3695 9.26243 11.2454 10.0495C10.7796 10.3757 10.3744 10.7808 10.0483 11.2467C9.16663 12.5058 9.16663 14.282 9.16663 17.8345C9.16663 21.387 9.16663 23.1633 10.0483 24.4223C10.3744 24.8882 10.7796 25.2933 11.2454 25.6195C12.5045 26.5011 14.2808 26.5011 17.8333 26.5011H22.1666C25.7191 26.5011 27.4953 26.5011 28.7545 25.6195C29.2203 25.2933 29.6255 24.8882 29.9517 24.4223C30.7387 23.2984 30.8231 21.7621 30.8322 18.9178" stroke="#4465AE" stroke-width="1.625" stroke-linecap="round"/>
<path d="M28.125 11.4917L28.1932 11.4424C29.3392 10.615 29.9123 10.2013 30.3728 10.4011C30.8333 10.6008 30.8333 11.2631 30.8333 12.5876V13.3288C30.8333 14.6533 30.8333 15.3155 30.3728 15.5153C29.9123 15.715 29.3392 15.3013 28.1932 14.4739L28.125 14.4247M23.7917 16.7498H24.3333C26.1207 16.7498 27.0145 16.7498 27.5697 16.264C28.125 15.7781 28.125 14.9961 28.125 13.4321V12.4842C28.125 10.9202 28.125 10.1382 27.5697 9.65237C27.0145 9.1665 26.1207 9.1665 24.3333 9.1665H23.7917C22.0043 9.1665 21.1105 9.1665 20.5553 9.65237C20 10.1382 20 10.9202 20 12.4842V13.4321C20 14.9961 20 15.7781 20.5553 16.264C21.1105 16.7498 22.0043 16.7498 23.7917 16.7498Z" stroke="#4465AE" stroke-width="1.625" stroke-linecap="round"/>
</svg>
