<svg width="20" height="20" viewBox="0 0 20 20" fill="none" xmlns="http://www.w3.org/2000/svg">
<path opacity="0.4" d="M10.0477 1.45825H9.95237C8.12682 1.45824 6.6929 1.45824 5.57339 1.60874C4.42618 1.76299 3.51597 2.08551 2.8008 2.80068C2.08564 3.51584 1.76311 4.42606 1.60887 5.57327C1.45836 6.69279 1.45837 8.12669 1.45837 9.95225V10.0476C1.45837 11.8732 1.45836 13.3071 1.60887 14.4266C1.76311 15.5738 2.08564 16.484 2.8008 17.1992C3.51597 17.9143 4.42618 18.2368 5.57339 18.3911C6.69291 18.5416 8.12679 18.5416 9.95237 18.5416H10.0477C11.8733 18.5416 13.3072 18.5416 14.4267 18.3911C15.5739 18.2368 16.4841 17.9143 17.1993 17.1992C17.9145 16.484 18.237 15.5738 18.3912 14.4266C18.5417 13.3071 18.5417 11.8732 18.5417 10.0476V9.95225C18.5417 8.1267 18.5417 6.69279 18.3912 5.57327C18.237 4.42606 17.9145 3.51584 17.1993 2.80068C16.4841 2.08551 15.5739 1.76299 14.4267 1.60874C13.3072 1.45824 11.8733 1.45824 10.0477 1.45825Z" fill="#ED4137"/>
<path fill-rule="evenodd" clip-rule="evenodd" d="M5.83328 7.91675C6.29352 7.91675 6.66662 8.28984 6.66662 8.75008V14.1667C6.66662 14.627 6.29352 15.0001 5.83328 15.0001C5.37305 15.0001 4.99995 14.627 4.99995 14.1667V8.75008C4.99995 8.28984 5.37305 7.91675 5.83328 7.91675ZM9.92612 7.99001C9.79529 7.70108 9.50446 7.50008 9.16662 7.50008C8.70637 7.50008 8.33328 7.87317 8.33328 8.33341V14.1667C8.33328 14.627 8.70637 15.0001 9.16662 15.0001C9.62687 15.0001 9.99996 14.627 9.99996 14.1667V10.8334C9.99996 9.91291 10.7461 9.16675 11.6666 9.16675C12.5871 9.16675 13.3333 9.91291 13.3333 10.8334V14.1667C13.3333 14.627 13.7064 15.0001 14.1666 15.0001C14.6269 15.0001 15 14.627 15 14.1667V10.8334C15 8.9925 13.5075 7.50008 11.6666 7.50008C11.0287 7.50008 10.4327 7.67925 9.92612 7.99001ZM5.8398 6.87508C6.41509 6.87508 6.88147 6.40871 6.88147 5.83341C6.88147 5.25811 6.41509 4.79175 5.8398 4.79175H5.83232C5.25702 4.79175 4.79065 5.25811 4.79065 5.83341C4.79065 6.40871 5.25702 6.87508 5.83231 6.87508H5.8398Z" fill="#ED4137"/>
</svg>
