<svg width="20" height="21" viewBox="0 0 20 21" fill="none" xmlns="http://www.w3.org/2000/svg">
<path d="M9.16663 16.3333H3.33329C2.41282 16.3333 1.66663 15.5872 1.66663 14.6667V4.66667C1.66663 3.74619 2.41282 3 3.33329 3H16.6666C17.5871 3 18.3333 3.74619 18.3333 4.66667V8.83333" stroke="#141B34" stroke-width="1.5" stroke-linecap="round" stroke-linejoin="round"/>
<path d="M18.3333 5.5L10.7453 9.294C10.2761 9.52858 9.72379 9.52858 9.25463 9.294L1.66663 5.5" stroke="#141B34" stroke-width="1.5" stroke-linejoin="round"/>
<path d="M16.111 14.6668C16.111 15.2805 15.6136 15.7779 15 15.7779C14.3863 15.7779 13.8889 15.2805 13.8889 14.6668C13.8889 14.0532 14.3863 13.5557 15 13.5557C15.6136 13.5557 16.111 14.0532 16.111 14.6668ZM16.111 14.6668V15.0372C16.111 15.6508 16.6085 16.1483 17.2222 16.1483C17.8358 16.1483 18.3333 15.6508 18.3333 15.0372V14.6668C18.3333 12.8259 16.8409 11.3335 15 11.3335C13.159 11.3335 11.6666 12.8259 11.6666 14.6668C11.6666 16.5077 13.159 18.0002 15 18.0002" stroke="#141B34" stroke-width="1.5" stroke-linecap="round" stroke-linejoin="round"/>
</svg>
