<svg width="40" height="40" viewBox="0 0 40 40" fill="none" xmlns="http://www.w3.org/2000/svg">
<rect width="40" height="40" rx="6" fill="white"/>
<path opacity="0.4" d="M17.8334 25.4168V14.5835H9.16669V25.4168C9.16669 26.9336 9.16669 27.692 9.46187 28.2714C9.72154 28.781 10.1359 29.1953 10.6455 29.455C11.2248 29.7502 11.9832 29.7502 13.5 29.7502C15.0168 29.7502 15.7752 29.7502 16.3546 29.455C16.8642 29.1953 17.2785 28.781 17.5382 28.2714C17.8334 27.692 17.8334 26.9336 17.8334 25.4168Z" fill="#4465AE"/>
<path opacity="0.4" d="M30.348 24.0426L27.602 13.7515L27.5348 13.5L19.4033 15.9575L22.1494 26.2486C22.5338 27.6894 22.7261 28.4098 23.1522 28.8851C23.527 29.303 24.024 29.5912 24.5719 29.7082C25.1947 29.8411 25.9122 29.6481 27.3471 29.262C28.782 28.8759 29.4994 28.6828 29.9726 28.255C30.3889 27.8785 30.6758 27.3796 30.7923 26.8293C30.9247 26.2038 30.7325 25.4834 30.348 24.0426Z" fill="#4465AE"/>
<path d="M9.16669 14.5833C9.16669 13.0665 9.16669 12.3081 9.46187 11.7288C9.72154 11.2192 10.1359 10.8049 10.6455 10.5452C11.2248 10.25 11.9832 10.25 13.5 10.25C15.0168 10.25 15.7752 10.25 16.3546 10.5452C16.8642 10.8049 17.2785 11.2192 17.5382 11.7288C17.8334 12.3081 17.8334 13.0665 17.8334 14.5833V25.4167C17.8334 26.9334 17.8334 27.6919 17.5382 28.2713C17.2785 28.7809 16.8642 29.1951 16.3546 29.4548C15.7752 29.75 15.0168 29.75 13.5 29.75C11.9832 29.75 11.2248 29.75 10.6455 29.4548C10.1359 29.1951 9.72154 28.7809 9.46187 28.2713C9.16669 27.6919 9.16669 26.9334 9.16669 25.4167V14.5833Z" stroke="#4465AE" stroke-width="1.625" stroke-linecap="round" stroke-linejoin="round"/>
<path d="M13.5 25.4165H13.509" stroke="#4465AE" stroke-width="2.16667" stroke-linecap="round" stroke-linejoin="round"/>
<path d="M9.16669 14.5835H17.8334" stroke="#4465AE" stroke-width="1.625" stroke-linecap="round" stroke-linejoin="round"/>
<path d="M19.4027 15.9575C19.0182 14.5166 18.826 13.7961 18.9584 13.1707C19.0748 12.6205 19.3617 12.1214 19.778 11.7451C20.2512 11.3172 20.9687 11.1241 22.4036 10.738C23.8385 10.352 24.556 10.1589 25.1788 10.2919C25.7267 10.4088 26.2236 10.6969 26.5985 11.1149C27.0246 11.5901 27.2168 12.3106 27.6013 13.7515L30.3474 24.0426C30.7318 25.4834 30.924 26.2038 30.7916 26.8293C30.6752 27.3796 30.3883 27.8785 29.972 28.255C29.4988 28.6828 28.7813 28.8759 27.3464 29.262C25.9115 29.6481 25.1941 29.8411 24.5712 29.7082C24.0233 29.5912 23.5264 29.303 23.1515 28.8851C22.7255 28.4098 22.5332 27.6894 22.1487 26.2486L19.4027 15.9575Z" stroke="#4465AE" stroke-width="1.625" stroke-linecap="round" stroke-linejoin="round"/>
<path d="M26.2629 25.0863L26.2716 25.084" stroke="#4465AE" stroke-width="2.16667" stroke-linecap="round" stroke-linejoin="round"/>
<path d="M20 15.6669L27.0418 13.5" stroke="#4465AE" stroke-width="1.625" stroke-linecap="round" stroke-linejoin="round"/>
</svg>
