<svg width="40" height="40" viewBox="0 0 40 40" fill="none" xmlns="http://www.w3.org/2000/svg">
<rect width="40" height="40" rx="6" fill="white"/>
<path opacity="0.4" fill-rule="evenodd" clip-rule="evenodd" d="M17.8333 9.1665H22.1666C25.7191 9.1665 27.4953 9.1665 28.7545 10.0481C29.2203 10.3743 29.6255 10.7795 29.9517 11.2453C30.8333 12.5044 30.8333 14.2807 30.8333 17.8332C30.8333 21.3856 30.8333 23.1619 29.9517 24.421C29.6255 24.8869 29.2203 25.292 28.7545 25.6182C27.4953 26.4998 25.7191 26.4998 22.1666 26.4998H17.8333C14.2808 26.4998 12.5045 26.4998 11.2454 25.6182C10.7796 25.292 10.3744 24.8869 10.0483 24.421C9.16663 23.1619 9.16663 21.3856 9.16663 17.8332C9.16663 14.2807 9.16663 12.5044 10.0483 11.2453C10.3744 10.7795 10.7796 10.3743 11.2454 10.0481C12.5045 9.1665 14.2808 9.1665 17.8333 9.1665ZM20 17.8332C21.1966 17.8332 22.1666 16.8631 22.1666 15.6665C22.1666 14.4699 21.1966 13.4998 20 13.4998C18.8033 13.4998 17.8333 14.4699 17.8333 15.6665C17.8333 16.8631 18.8033 17.8332 20 17.8332Z" fill="#4465AE"/>
<path d="M22.1666 9.1665H17.8333C14.2808 9.1665 12.5045 9.1665 11.2454 10.0481C10.7796 10.3743 10.3744 10.7795 10.0483 11.2453C9.16663 12.5044 9.16663 14.2807 9.16663 17.8332C9.16663 21.3856 9.16663 23.1619 10.0483 24.421C10.3744 24.8869 10.7796 25.292 11.2454 25.6182C12.5045 26.4998 14.2808 26.4998 17.8333 26.4998H22.1666C25.7191 26.4998 27.4953 26.4998 28.7545 25.6182C29.2203 25.292 29.6255 24.8869 29.9517 24.421C30.8333 23.1619 30.8333 21.3856 30.8333 17.8332C30.8333 14.2807 30.8333 12.5044 29.9517 11.2453C29.6255 10.7795 29.2203 10.3743 28.7545 10.0481C27.4953 9.1665 25.7191 9.1665 22.1666 9.1665Z" stroke="#4465AE" stroke-width="1.625" stroke-linecap="round"/>
<path d="M22.7083 30.8333L22.3665 30.3795C21.596 29.3566 21.4049 27.7939 21.8923 26.5M17.2916 30.8333L17.6334 30.3795C18.4039 29.3566 18.595 27.7939 18.1076 26.5" stroke="#4465AE" stroke-width="1.625" stroke-linecap="round"/>
<path d="M14.5834 30.8335H25.4167" stroke="#4465AE" stroke-width="1.625" stroke-linecap="round"/>
<path d="M15.6666 22.1667C17.6583 19.355 22.2953 19.2016 24.3333 22.1667M22.1666 15.6667C22.1666 16.8633 21.1966 17.8333 20 17.8333C18.8033 17.8333 17.8333 16.8633 17.8333 15.6667C17.8333 14.47 18.8033 13.5 20 13.5C21.1966 13.5 22.1666 14.47 22.1666 15.6667Z" stroke="#4465AE" stroke-width="1.625" stroke-linecap="round"/>
</svg>
