<svg width="40" height="40" viewBox="0 0 40 40" fill="none" xmlns="http://www.w3.org/2000/svg">
<rect width="40" height="40" rx="6" fill="white"/>
<path opacity="0.4" d="M11.9022 10.3357C10.7917 11.5047 10.7917 13.3862 10.7917 17.1492V22.851C10.7917 26.6139 10.7917 28.4954 11.9022 29.6644C13.0128 30.8334 14.8002 30.8334 18.375 30.8334H21.625C25.1998 30.8334 26.9872 30.8334 28.0978 29.6644C29.2084 28.4954 29.2084 26.6139 29.2084 22.851V17.1492C29.2084 13.3862 29.2084 11.5047 28.0978 10.3357C27.2549 9.44849 26.0222 9.23464 23.9139 9.18311C24.134 9.24358 24.284 9.46324 24.2443 9.70104C24.0282 10.998 23.9201 11.6466 23.4655 12.0316C23.0109 12.4167 22.3535 12.4167 21.0385 12.4167H18.9615C17.6466 12.4167 16.9892 12.4167 16.5346 12.0316C16.08 11.6466 15.9719 10.998 15.7557 9.70104C15.7161 9.46323 15.8661 9.24358 16.0862 9.18311C13.9779 9.23464 12.7451 9.44849 11.9022 10.3357Z" fill="#4465AE"/>
<path d="M10.7917 17.149C10.7917 13.386 10.7917 11.5045 11.9022 10.3355C13.0128 9.1665 14.8002 9.1665 18.375 9.1665H21.625C25.1998 9.1665 26.9872 9.1665 28.0978 10.3355C29.2084 11.5045 29.2084 13.386 29.2084 17.149V22.8507C29.2084 26.6137 29.2084 28.4951 28.0978 29.6641C26.9872 30.8332 25.1998 30.8332 21.625 30.8332H18.375C14.8002 30.8332 13.0128 30.8332 11.9022 29.6641C10.7917 28.4951 10.7917 26.6137 10.7917 22.8507V17.149Z" stroke="#4465AE" stroke-width="1.625" stroke-linecap="round" stroke-linejoin="round"/>
<path d="M21.625 18.9165H25.4167" stroke="#4465AE" stroke-width="1.625" stroke-linecap="round"/>
<path d="M14.5833 20.0002C14.5833 20.0002 15.125 20.0002 15.6666 21.0835C15.6666 21.0835 17.3872 18.3752 18.9166 17.8335" stroke="#4465AE" stroke-width="1.625" stroke-linecap="round" stroke-linejoin="round"/>
<path d="M21.625 25.4165H25.4167" stroke="#4465AE" stroke-width="1.625" stroke-linecap="round"/>
<path d="M15.6667 9.1665L15.7557 9.7008C15.9719 10.9978 16.08 11.6463 16.5346 12.0314C16.9892 12.4165 17.6466 12.4165 18.9615 12.4165H21.0385C22.3535 12.4165 23.0109 12.4165 23.4655 12.0314C23.9201 11.6463 24.0282 10.9978 24.2443 9.7008L24.3334 9.1665" stroke="#4465AE" stroke-width="1.625" stroke-linecap="round" stroke-linejoin="round"/>
<path d="M15.6667 25.4165H16.75" stroke="#4465AE" stroke-width="2.16667" stroke-linecap="round" stroke-linejoin="round"/>
</svg>
