<svg width="20" height="21" viewBox="0 0 20 21" fill="none" xmlns="http://www.w3.org/2000/svg">
<path d="M10.0003 18.8334C14.6027 18.8334 18.3337 15.1024 18.3337 10.5001C18.3337 5.89771 14.6027 2.16675 10.0003 2.16675C5.39795 2.16675 1.66699 5.89771 1.66699 10.5001C1.66699 11.6492 1.89955 12.7439 2.32018 13.7398C2.55264 14.2902 2.66888 14.5654 2.68327 14.7734C2.69766 14.9814 2.63644 15.2102 2.51401 15.6677L1.66699 18.8334L4.83263 17.9864C5.29023 17.864 5.51903 17.8027 5.72701 17.8172C5.935 17.8315 6.2102 17.9477 6.76062 18.1802C7.75653 18.6008 8.85124 18.8334 10.0003 18.8334Z" stroke="#141B34" stroke-width="1.5" stroke-linejoin="round"/>
<path d="M7.15647 10.8143L7.88225 9.91292C8.18814 9.533 8.56626 9.17934 8.59592 8.67347C8.60334 8.5457 8.51351 7.97206 8.33367 6.8248C8.26302 6.37393 7.84206 6.33325 7.47744 6.33325C7.00229 6.33325 6.76472 6.33325 6.5288 6.44101C6.23062 6.57721 5.9245 6.96018 5.85732 7.28103C5.80417 7.53489 5.84367 7.70981 5.92267 8.05966C6.2582 9.54558 7.04535 11.0131 8.26591 12.2337C9.48651 13.4543 10.954 14.2414 12.4399 14.5769C12.7898 14.6559 12.9647 14.6954 13.2186 14.6423C13.5394 14.5751 13.9223 14.269 14.0586 13.9708C14.1663 13.7348 14.1663 13.4973 14.1663 13.0222C14.1663 12.6575 14.1257 12.2366 13.6748 12.1659C12.5275 11.9861 11.9539 11.8963 11.8261 11.9037C11.3203 11.9333 10.9666 12.3114 10.5867 12.6173L9.68526 13.3431" stroke="#141B34" stroke-width="1.5"/>
</svg>
