<svg width="20" height="20" viewBox="0 0 20 20" fill="none" xmlns="http://www.w3.org/2000/svg">
<path opacity="0.4" d="M1.04164 10.0001C1.04164 5.05253 5.05243 1.04175 9.99996 1.04175C14.9475 1.04175 18.9583 5.05253 18.9583 10.0001C18.9583 14.9477 14.9475 18.9584 9.99996 18.9584C8.76588 18.9584 7.58858 18.7085 6.51709 18.256C6.23601 18.1372 6.04608 18.0572 5.90012 18.0038C5.75124 17.9492 5.69739 17.9416 5.68351 17.9407C5.60525 17.9352 5.49885 17.955 4.99383 18.0902L1.82819 18.9372C1.61256 18.9948 1.38254 18.9332 1.2247 18.7753C1.06687 18.6175 1.00519 18.3875 1.06288 18.1718L1.90989 15.0062C2.04502 14.5012 2.06482 14.3948 2.05941 14.3166C2.05844 14.3027 2.05079 14.2488 1.99627 14.0999C1.94281 13.954 1.86279 13.7641 1.74407 13.483C1.29154 12.4115 1.04164 11.2342 1.04164 10.0001Z" fill="#ED4137"/>
<path d="M7.40025 5.20834L7.47746 5.20842C7.6611 5.20842 7.97037 5.21409 8.25621 5.33321C8.59771 5.47551 8.87912 5.76868 8.95112 6.22821L8.95187 6.23295C9.04112 6.80257 9.10904 7.23547 9.15354 7.5417C9.17579 7.69496 9.19304 7.82216 9.20437 7.92167C9.21371 8.00346 9.22537 8.11601 9.21987 8.21015C9.19596 8.61812 9.03046 8.94262 8.85829 9.19395C8.74862 9.35387 8.60187 9.52762 8.48646 9.66429C8.44112 9.71804 8.40062 9.76595 8.36904 9.80512L8.31716 9.86954C8.11906 10.1156 8.02001 10.2386 8.02313 10.3903C8.02626 10.542 8.12366 10.6533 8.31849 10.8759C8.44245 11.0175 8.57221 11.1563 8.70787 11.292C8.84346 11.4275 8.98229 11.5574 9.12387 11.6813C9.34646 11.8761 9.45779 11.9735 9.60946 11.9766C9.76112 11.9798 9.88421 11.8807 10.1302 11.6826L10.1947 11.6307C10.2338 11.5992 10.2818 11.5587 10.3355 11.5134C10.4721 11.398 10.646 11.2511 10.8059 11.1415C11.0572 10.9693 11.3816 10.8038 11.7896 10.78C11.8838 10.7745 11.9963 10.7861 12.0781 10.7954C12.1776 10.8067 12.3048 10.824 12.458 10.8463C12.7643 10.8908 13.1972 10.9586 13.7668 11.0479L13.7715 11.0486C14.2311 11.1206 14.5243 11.4021 14.6665 11.7435C14.7857 12.0294 14.7914 12.3387 14.7914 12.5223L14.7915 12.5995C14.7921 12.9993 14.7927 13.368 14.6271 13.7306C14.5067 13.9941 14.3023 14.2183 14.098 14.3815C13.8939 14.5448 13.6301 14.6948 13.3466 14.7542C12.958 14.8355 12.6624 14.7685 12.346 14.6967L12.3023 14.6868C10.6987 14.3246 9.12629 13.4781 7.82398 12.1758C6.52164 10.8735 5.67512 9.30104 5.31302 7.6975L5.30311 7.65375C5.23133 7.33743 5.16423 7.04174 5.2456 6.65311C5.30496 6.36961 5.45501 6.10591 5.61826 5.9017C5.7815 5.69749 6.00567 5.49303 6.26913 5.37269C6.63178 5.20704 7.00052 5.20766 7.40025 5.20834Z" fill="#ED4137"/>
</svg>
